<?xml version="1.0" encoding="UTF-8" standalone="no"?>
<svg
   version="1.1"
   height="18px"
   width="18px"
   fill="white"
   viewBox="0 0 24 24">
  <metadata
     id="metadata12">
  </metadata>
  <path
     d="m 16.966333,7.044 c -0.39,-0.39 -1.02,-0.39 -1.41,0 L 12,10.59 8.4436667,7.0336667 c -0.39,-0.39 -1.02,-0.39 -1.41,0 -0.39,0.39 -0.39,1.02 0,1.41 L 10.59,12 7.0336667,15.556333 c -0.39,0.39 -0.39,1.02 0,1.41 0.39,0.39 1.02,0.39 1.41,0 L 12,13.41 l 3.556333,3.556333 c 0.39,0.39 1.02,0.39 1.41,0 0.39,-0.39 0.39,-1.02 0,-1.41 L 13.41,12 16.966333,8.444 c 0.380018,-0.3799822 0.38,-1.02 0,-1.4 z" />
</svg>
